<svg width="20" height="20" viewBox="0 0 20 20" fill="none" xmlns="http://www.w3.org/2000/svg">
<path d="M10 0.399902C4.69842 0.399902 0.400024 4.6983 0.400024 9.9999C0.400024 14.4983 3.49762 18.2623 7.67362 19.3039C7.62882 19.1743 7.60002 19.0239 7.60002 18.8375V17.1967C7.21042 17.1967 6.55762 17.1967 6.39362 17.1967C5.73682 17.1967 5.15282 16.9143 4.86962 16.3895C4.55522 15.8063 4.50082 14.9143 3.72162 14.3687C3.49042 14.1871 3.66642 13.9799 3.93282 14.0079C4.42482 14.1471 4.83282 14.4847 5.21682 14.9855C5.59922 15.4871 5.77922 15.6007 6.49362 15.6007C6.84002 15.6007 7.35842 15.5807 7.84642 15.5039C8.10882 14.8375 8.56242 14.2239 9.11682 13.9343C5.92002 13.6055 4.39442 12.0151 4.39442 9.8559C4.39442 8.9263 4.79042 8.0271 5.46322 7.2695C5.24242 6.5175 4.96482 4.9839 5.54802 4.3999C6.98642 4.3999 7.85602 5.3327 8.06482 5.5847C8.78162 5.3391 9.56882 5.1999 10.396 5.1999C11.2248 5.1999 12.0152 5.3391 12.7336 5.5863C12.94 5.3359 13.8104 4.3999 15.252 4.3999C15.8376 4.9847 15.5568 6.5247 15.3336 7.2751C16.0024 8.0311 16.396 8.9279 16.396 9.8559C16.396 12.0135 14.8728 13.6031 11.6808 13.9335C12.5592 14.3919 13.2 15.6799 13.2 16.6503V18.8375C13.2 18.9207 13.1816 18.9807 13.172 19.0519C16.9128 17.7407 19.6 14.1887 19.6 9.9999C19.6 4.6983 15.3016 0.399902 10 0.399902Z" fill="#62E093"/>
</svg>
