<svg width="18" height="18" viewBox="0 0 18 18" fill="none" xmlns="http://www.w3.org/2000/svg">
<path d="M9 0C6.61305 0 4.32387 0.948212 2.63604 2.63604C0.948212 4.32387 0 6.61305 0 9C0 11.3869 0.948212 13.6761 2.63604 15.364C4.32387 17.0518 6.61305 18 9 18C11.3869 18 13.6761 17.0518 15.364 15.364C17.0518 13.6761 18 11.3869 18 9C18 6.61305 17.0518 4.32387 15.364 2.63604C13.6761 0.948212 11.3869 0 9 0Z" fill="#29B6F6"/>
<path d="M12.8531 5.5625L11.2143 13.9301C11.2143 13.9301 11.1438 14.3125 10.6696 14.3125C10.4176 14.3125 10.2876 14.1926 10.2876 14.1926L6.73775 11.2469L5.00088 10.3715L2.77181 9.77869C2.77181 9.77869 2.375 9.66406 2.375 9.33594C2.375 9.0625 2.78319 8.93213 2.78319 8.93213L12.1089 5.22738C12.1085 5.22694 12.3938 5.12456 12.6016 5.125C12.7293 5.125 12.875 5.17969 12.875 5.34375C12.875 5.45313 12.8531 5.5625 12.8531 5.5625Z" fill="white"/>
<path d="M8.06249 12.346L6.56361 13.8221C6.56361 13.8221 6.49843 13.8724 6.41136 13.8746C6.38118 13.8755 6.3488 13.8707 6.31555 13.8558L6.7373 11.2461L8.06249 12.346Z" fill="#B0BEC5"/>
<path d="M11.0799 6.9607C11.006 6.86445 10.8695 6.84695 10.7732 6.92002L5 10.375C5 10.375 5.92138 12.9527 6.06181 13.399C6.20269 13.8456 6.31556 13.8561 6.31556 13.8561L6.73731 11.2465L11.0388 7.26695C11.1351 7.19389 11.153 7.05695 11.0799 6.9607Z" fill="#CFD8DC"/>
</svg>
