<svg width="19" height="18" viewBox="0 0 19 18" fill="none" xmlns="http://www.w3.org/2000/svg">
<path d="M9.77696 0C4.85211 0 0.848877 4.03548 0.848877 9C0.848877 10.5242 1.22317 12.0194 1.95757 13.3404L1.19454 16.1566C1.06494 16.6066 1.19437 17.071 1.52557 17.4049C1.85677 17.7388 2.3178 17.8695 2.76421 17.7533L5.67292 16.9839C6.94013 17.6516 8.35129 18 9.7913 18C14.7161 18 18.7194 13.9645 18.7194 9C18.7194 6.59032 17.7978 4.34021 16.113 2.64182C14.4138 0.943435 12.1674 0 9.77696 0ZM9.77696 0.870968C11.937 0.870968 13.9673 1.71296 15.4794 3.25167C17.0058 4.79038 17.8554 6.8371 17.841 9C17.841 13.4855 14.2266 17.129 9.77696 17.129C8.43775 17.129 7.09842 16.7805 5.91761 16.1418C5.86001 16.1128 5.78823 16.084 5.71623 16.084C5.67303 16.084 5.64412 16.0839 5.60092 16.0984L2.53358 16.9113C2.31758 16.9694 2.1738 16.8531 2.1162 16.795C2.0586 16.737 1.94329 16.592 2.00089 16.3743L2.80724 13.3838C2.83604 13.2676 2.82181 13.1517 2.76421 13.0501C2.073 11.8307 1.71288 10.4226 1.71288 9C1.71288 4.51452 5.32732 0.870968 9.77696 0.870968ZM9.77696 2.17742C6.04732 2.17742 3.0089 5.22581 3.0089 9C3.0089 10.2048 3.32581 11.3806 3.91622 12.4113C4.14662 12.8177 4.20411 13.2967 4.08891 13.7467L3.67125 15.2709L5.28423 14.8501C5.42823 14.8066 5.57223 14.792 5.71623 14.792C6.00424 14.792 6.29213 14.8646 6.53693 15.0097C7.53054 15.5323 8.63935 15.8226 9.77696 15.8226C13.5066 15.8226 16.545 12.7597 16.545 9C16.545 7.17097 15.8393 5.45795 14.5577 4.16602C13.2905 2.8886 11.5914 2.17742 9.77696 2.17742ZM6.76727 5.03698H7.17059C7.32899 5.03698 7.48722 5.0515 7.64563 5.39989C7.83283 5.82085 8.25043 6.88059 8.29363 6.9822C8.35123 7.08381 8.38026 7.2144 8.30826 7.35956C8.23626 7.50472 8.20746 7.59182 8.09225 7.72247C7.99145 7.85311 7.86168 7.9985 7.77528 8.10011C7.67448 8.20173 7.55934 8.31785 7.68894 8.5356C7.81854 8.75334 8.23603 9.45 8.86964 10.0161C9.67604 10.7419 10.3673 10.9743 10.5833 11.0759C10.7993 11.1775 10.9147 11.163 11.0443 11.0178C11.1739 10.8726 11.577 10.3935 11.721 10.1757C11.865 9.95801 12.0091 10.0017 12.1963 10.0743C12.3979 10.1468 13.4346 10.6692 13.6506 10.7709C13.8666 10.8725 14.0105 10.9307 14.0537 11.0178C14.1113 11.1339 14.1115 11.5548 13.9387 12.0628C13.7658 12.5564 12.9018 13.0499 12.4986 13.079C12.1098 13.108 11.7497 13.2533 9.94965 12.542C7.78963 11.6855 6.42173 9.44994 6.32093 9.30478C6.22013 9.15962 5.45692 8.14366 5.45692 7.08398C5.45692 6.02431 6.00401 5.51613 6.20561 5.29839C6.40721 5.08065 6.62327 5.03698 6.76727 5.03698Z" fill="#62E093"/>
</svg>
