<svg width="1526" height="265" viewBox="0 0 1526 265" fill="none" xmlns="http://www.w3.org/2000/svg">
<path d="M73 264.516C40.6562 255.441 24.4844 234.553 24.4844 201.85V175.031C24.4844 156.074 16.4883 146.596 0.496094 146.596V118.699C16.1289 118.699 24.125 109.76 24.4844 91.8809V63.3105C24.4844 46.6895 28.5273 33.2578 36.6133 23.0156C44.6992 12.7734 56.8281 5.36133 73 0.779297L80.5469 22.4766C73.7188 24.9922 68.5527 29.3945 65.0488 35.6836C61.5449 41.8828 59.7031 50.5078 59.5234 61.5586V89.8594C59.5234 110.164 51.4824 124.404 35.4004 132.58C51.4824 140.846 59.5234 155.176 59.5234 175.57V204.141C59.9727 225.164 66.9805 238.012 80.5469 242.684L73 264.516ZM991.832 216V19.7812H1052.21C1069.46 19.7812 1084.87 23.6895 1098.43 31.5059C1112.09 39.2324 1122.73 50.2832 1130.37 64.6582C1138.01 78.9434 1141.83 95.2051 1141.83 113.443V122.473C1141.83 140.711 1138.05 156.928 1130.51 171.123C1123.05 185.318 1112.49 196.324 1098.84 204.141C1085.18 211.957 1069.77 215.91 1052.61 216H991.832ZM1032.26 52.5293V183.521H1051.8C1067.62 183.521 1079.7 178.355 1088.05 168.023C1096.41 157.691 1100.68 142.912 1100.86 123.686V113.309C1100.86 93.3633 1096.72 78.2695 1088.46 68.0273C1080.19 57.6953 1068.11 52.5293 1052.21 52.5293H1032.26ZM1235.89 218.695C1214.51 218.695 1197.08 212.137 1183.6 199.02C1170.22 185.902 1163.52 168.428 1163.52 146.596V142.822C1163.52 128.178 1166.35 115.105 1172.01 103.605C1177.67 92.0156 1185.67 83.1211 1196 76.9219C1206.42 70.6328 1218.28 67.4883 1231.58 67.4883C1251.53 67.4883 1267.2 73.7773 1278.61 86.3555C1290.11 98.9336 1295.86 116.768 1295.86 139.857V155.76H1203.01C1204.27 165.283 1208.04 172.92 1214.33 178.67C1220.71 184.42 1228.75 187.295 1238.45 187.295C1253.46 187.295 1265.18 181.859 1273.63 170.988L1292.76 192.416C1286.92 200.682 1279.02 207.15 1269.04 211.822C1259.07 216.404 1248.02 218.695 1235.89 218.695ZM1231.45 99.0234C1223.72 99.0234 1217.43 101.629 1212.58 106.84C1207.82 112.051 1204.76 119.508 1203.41 129.211H1257.59V126.111C1257.41 117.486 1255.07 110.838 1250.58 106.166C1246.09 101.404 1239.71 99.0234 1231.45 99.0234ZM1370.79 168.428L1397.88 70.1836H1438.58L1389.39 216H1352.2L1303.01 70.1836H1343.71L1370.79 168.428ZM1445.45 242.684C1459.11 237.832 1466.12 224.805 1466.48 203.602V175.031C1466.48 154.727 1474.7 140.621 1491.14 132.715C1474.7 124.809 1466.48 110.479 1466.48 89.7246V61.5586C1466.12 40.625 1459.11 27.5977 1445.45 22.4766L1453 0.779297C1469.08 5.27148 1481.17 12.6387 1489.25 22.8809C1497.34 33.0332 1501.43 46.375 1501.52 62.9062V91.8809C1501.88 109.76 1509.87 118.699 1525.5 118.699V146.596C1509.51 146.596 1501.52 155.984 1501.52 174.762V204.006C1500.8 235.451 1484.62 255.621 1453 264.516L1445.45 242.684Z" fill="black"/>
<path d="M102.648 216V19.7812H171.379C195.188 19.7812 213.246 24.3633 225.555 33.5273C237.863 42.6016 244.018 55.9434 244.018 73.5527C244.018 83.166 241.547 91.6562 236.605 99.0234C231.664 106.301 224.791 111.646 215.986 115.061C226.049 117.576 233.955 122.652 239.705 130.289C245.545 137.926 248.465 147.27 248.465 158.32C248.465 177.188 242.445 191.473 230.406 201.176C218.367 210.879 201.207 215.82 178.926 216H102.648ZM143.078 130.559V183.521H177.713C187.236 183.521 194.648 181.275 199.949 176.783C205.34 172.201 208.035 165.912 208.035 157.916C208.035 139.947 198.736 130.828 180.139 130.559H143.078ZM143.078 101.988H172.996C193.391 101.629 203.588 93.498 203.588 77.5957C203.588 68.7012 200.982 62.3223 195.771 58.459C190.65 54.5059 182.52 52.5293 171.379 52.5293H143.078V101.988ZM358.299 106.705C352.998 105.986 348.326 105.627 344.283 105.627C329.549 105.627 319.891 110.613 315.309 120.586V216H276.361V70.1836H313.152L314.23 87.5684C322.047 74.1816 332.873 67.4883 346.709 67.4883C351.021 67.4883 355.064 68.0723 358.838 69.2402L358.299 106.705ZM441.584 218.695C420.201 218.695 402.771 212.137 389.295 199.02C375.908 185.902 369.215 168.428 369.215 146.596V142.822C369.215 128.178 372.045 115.105 377.705 103.605C383.365 92.0156 391.361 83.1211 401.693 76.9219C412.115 70.6328 423.975 67.4883 437.271 67.4883C457.217 67.4883 472.895 73.7773 484.305 86.3555C495.805 98.9336 501.555 116.768 501.555 139.857V155.76H408.701C409.959 165.283 413.732 172.92 420.021 178.67C426.4 184.42 434.441 187.295 444.145 187.295C459.148 187.295 470.873 181.859 479.318 170.988L498.455 192.416C492.615 200.682 484.709 207.15 474.736 211.822C464.764 216.404 453.713 218.695 441.584 218.695ZM437.137 99.0234C429.41 99.0234 423.121 101.629 418.27 106.84C413.508 112.051 410.453 119.508 409.105 129.211H463.281V126.111C463.102 117.486 460.766 110.838 456.273 106.166C451.781 101.404 445.402 99.0234 437.137 99.0234ZM559.639 70.1836L560.852 87.0293C571.273 74.002 585.244 67.4883 602.764 67.4883C618.217 67.4883 629.717 72.0254 637.264 81.0996C644.811 90.1738 648.674 103.74 648.854 121.799V216H609.906V122.742C609.906 114.477 608.109 108.502 604.516 104.818C600.922 101.045 594.947 99.1582 586.592 99.1582C575.631 99.1582 567.41 103.83 561.93 113.174V216H522.982V70.1836H559.639ZM714.35 70.1836L715.562 87.0293C725.984 74.002 739.955 67.4883 757.475 67.4883C772.928 67.4883 784.428 72.0254 791.975 81.0996C799.521 90.1738 803.385 103.74 803.564 121.799V216H764.617V122.742C764.617 114.477 762.82 108.502 759.227 104.818C755.633 101.045 749.658 99.1582 741.303 99.1582C730.342 99.1582 722.121 103.83 716.641 113.174V216H677.693V70.1836H714.35ZM827.148 141.744C827.148 127.279 829.934 114.387 835.504 103.066C841.074 91.7461 849.07 82.9863 859.492 76.7871C870.004 70.5879 882.178 67.4883 896.014 67.4883C915.689 67.4883 931.727 73.5078 944.125 85.5469C956.613 97.5859 963.576 113.938 965.014 134.602L965.283 144.574C965.283 166.945 959.039 184.914 946.551 198.48C934.062 211.957 917.307 218.695 896.283 218.695C875.26 218.695 858.459 211.957 845.881 198.48C833.393 185.004 827.148 166.676 827.148 143.496V141.744ZM866.096 144.574C866.096 158.41 868.701 169.012 873.912 176.379C879.123 183.656 886.58 187.295 896.283 187.295C905.717 187.295 913.084 183.701 918.385 176.514C923.686 169.236 926.336 157.646 926.336 141.744C926.336 128.178 923.686 117.666 918.385 110.209C913.084 102.752 905.627 99.0234 896.014 99.0234C886.49 99.0234 879.123 102.752 873.912 110.209C868.701 117.576 866.096 129.031 866.096 144.574Z" fill="white"/>
</svg>
