<svg id="Capa_1" enable-background="new 0 0 512 512" height="512" viewBox="0 0 512 512" width="512" xmlns="http://www.w3.org/2000/svg"><g><path d="m450.769 31h-29.769v80h29.769c16.696 0 30.231-13.535 30.231-30.231v-19.538c0-16.696-13.535-30.231-30.231-30.231z"/><path d="m450.769 141h-29.769v80h29.769c16.696 0 30.231-13.535 30.231-30.231v-19.539c0-16.695-13.535-30.23-30.231-30.23z"/><path d="m450.769 251h-29.769v80h29.769c16.696 0 30.231-13.535 30.231-30.231v-19.539c0-16.695-13.535-30.23-30.231-30.23z"/><path d="m31 15v482c0 8.284 6.716 15 15 15h346v-512h-346c-8.284 0-15 6.716-15 15zm285.5 437h-210c-8.284 0-15-6.716-15-15s6.716-15 15-15h210c8.284 0 15 6.716 15 15s-6.716 15-15 15zm-168.962-389.463 41.171-1.407c8.022-.29 14.849 5.826 15.468 13.837l7.386 95.67c.619 8.017-5.194 15.096-13.179 16.049l-23.485 2.802c10.116 30.509 27.621 58.379 50.712 80.738l12.721-19.939c4.325-6.779 13.228-8.941 20.179-4.903l82.975 48.192c6.947 4.035 9.482 12.827 5.748 19.941l-19.145 36.478c-19.603 37.353-66.178 51.955-103.823 31.433-88.03-47.996-145.117-139.043-150.122-239.016-2.128-42.501 30.89-78.422 73.394-79.875z"/><path d="m238.627 355.087c22.642 12.345 50.93 3.772 62.899-19.034l12.466-23.753-58.107-33.75-14.434 22.624c-4.822 7.561-15.166 9.22-22.112 3.568-38.857-31.615-66.649-75.862-78.256-124.592-2.078-8.723 3.921-17.309 12.815-18.37l26.647-3.179-5.172-66.998-26.809.916c-25.767.88-45.745 22.668-44.456 48.393 4.469 89.307 56.015 171.374 134.519 214.175z"/></g></svg>