<svg width="18" height="14" viewBox="0 0 18 14" fill="none" xmlns="http://www.w3.org/2000/svg">
<path d="M17.75 3.75L15.6667 4.89583L13.5834 6.875V13.6667H16.5C17.1905 13.6667 17.75 13.1071 17.75 12.4167V3.75Z" fill="#4CAF50"/>
<path d="M0.25 3.75L1.75583 4.4625L4.41667 6.875V13.6667H1.5C0.809583 13.6667 0.25 13.1071 0.25 12.4167V3.75Z" fill="#1E88E5"/>
<path d="M13.5833 1.6665L9 5.104L4.41667 1.6665L4 4.08317L4.41667 6.87484L9 10.3123L13.5833 6.87484L14 4.08317L13.5833 1.6665Z" fill="#E53935"/>
<path d="M0.25 2.12433V3.75016L4.41667 6.87516V1.66683L3.115 0.691413C2.805 0.458913 2.42833 0.333496 2.04083 0.333496C1.05167 0.333496 0.25 1.13516 0.25 2.12433Z" fill="#C62828"/>
<path d="M17.75 2.12433V3.75016L13.5834 6.87516V1.66683L14.885 0.691413C15.195 0.458913 15.5717 0.333496 15.9592 0.333496C16.9484 0.333496 17.75 1.13516 17.75 2.12433Z" fill="#FBC02D"/>
</svg>
