<svg width="19" height="19" viewBox="0 0 19 19" fill="none" xmlns="http://www.w3.org/2000/svg">
<path d="M18.875 16.2708C18.875 17.7094 17.7094 18.875 16.2708 18.875H2.72917C1.29115 18.875 0.125 17.7094 0.125 16.2708V2.72917C0.125 1.29062 1.29115 0.125 2.72917 0.125H16.2708C17.7094 0.125 18.875 1.29062 18.875 2.72917V16.2708Z" fill="#0288D1"/>
<path d="M3.25 6.89583H5.85417V15.75H3.25V6.89583ZM4.54427 5.85417H4.52969C3.7526 5.85417 3.25 5.275 3.25 4.55156C3.25 3.8125 3.76823 3.25 4.55937 3.25C5.35156 3.25 5.83958 3.8125 5.85417 4.55156C5.85417 5.27448 5.35156 5.85417 4.54427 5.85417ZM15.75 15.75H13.1458V11.0109C13.1458 9.86615 12.5078 9.0849 11.4833 9.0849C10.7016 9.0849 10.2786 9.61198 10.0734 10.1214C9.99844 10.3036 10.0208 10.8078 10.0208 11.0625V15.75H7.41667V6.89583H10.0208V8.25833C10.3964 7.67708 10.9844 6.89583 12.4885 6.89583C14.3521 6.89583 15.7495 8.06771 15.7495 10.6844L15.75 15.75Z" fill="white"/>
</svg>
